<svg width="140" height="60" viewBox="0 0 140 60" fill="none" xmlns="http://www.w3.org/2000/svg">
<path d="M10.032 23.288C8.736 23.288 7.528 23.08 6.408 22.664C5.304 22.232 4.344 21.624 3.528 20.84C2.712 20.056 2.072 19.136 1.608 18.08C1.16 17.024 0.936 15.864 0.936 14.6C0.936 13.336 1.16 12.176 1.608 11.12C2.072 10.064 2.712 9.144 3.528 8.36C4.36 7.576 5.328 6.976 6.432 6.56C7.536 6.128 8.744 5.912 10.056 5.912C11.512 5.912 12.824 6.168 13.992 6.68C15.176 7.176 16.168 7.912 16.968 8.888L14.472 11.192C13.896 10.536 13.256 10.048 12.552 9.728C11.848 9.392 11.08 9.224 10.248 9.224C9.464 9.224 8.744 9.352 8.088 9.608C7.432 9.864 6.864 10.232 6.384 10.712C5.904 11.192 5.528 11.76 5.256 12.416C5 13.072 4.872 13.8 4.872 14.6C4.872 15.4 5 16.128 5.256 16.784C5.528 17.44 5.904 18.008 6.384 18.488C6.864 18.968 7.432 19.336 8.088 19.592C8.744 19.848 9.464 19.976 10.248 19.976C11.08 19.976 11.848 19.816 12.552 19.496C13.256 19.16 13.896 18.656 14.472 17.984L16.968 20.288C16.168 21.264 15.176 22.008 13.992 22.52C12.824 23.032 11.504 23.288 10.032 23.288ZM18.3232 23V20.48L24.8033 14.36C25.3153 13.896 25.6913 13.48 25.9313 13.112C26.1713 12.744 26.3313 12.408 26.4113 12.104C26.5073 11.8 26.5553 11.52 26.5553 11.264C26.5553 10.592 26.3233 10.08 25.8593 9.728C25.4113 9.36 24.7473 9.176 23.8672 9.176C23.1633 9.176 22.5073 9.312 21.8993 9.584C21.3073 9.856 20.8033 10.28 20.3873 10.856L17.5553 9.032C18.1953 8.072 19.0913 7.312 20.2433 6.752C21.3953 6.192 22.7233 5.912 24.2273 5.912C25.4753 5.912 26.5633 6.12 27.4913 6.536C28.4353 6.936 29.1633 7.504 29.6753 8.24C30.2033 8.976 30.4673 9.856 30.4673 10.88C30.4673 11.424 30.3953 11.968 30.2513 12.512C30.1233 13.04 29.8513 13.6 29.4353 14.192C29.0353 14.784 28.4433 15.448 27.6593 16.184L22.2833 21.248L21.5393 19.832H31.0193V23H18.3232ZM40.4764 23V6.2H43.6924L53.6044 18.296H52.0444V6.2H55.8844V23H52.6924L42.7564 10.904H44.3164V23H40.4764ZM66.0032 23.192C64.5312 23.192 63.2352 22.904 62.1152 22.328C61.0112 21.752 60.1552 20.968 59.5472 19.976C58.9392 18.968 58.6352 17.824 58.6352 16.544C58.6352 15.248 58.9312 14.104 59.5232 13.112C60.1312 12.104 60.9552 11.32 61.9952 10.76C63.0352 10.184 64.2112 9.896 65.5232 9.896C66.7872 9.896 67.9232 10.168 68.9312 10.712C69.9552 11.24 70.7632 12.008 71.3552 13.016C71.9472 14.008 72.2432 15.2 72.2432 16.592C72.2432 16.736 72.2352 16.904 72.2192 17.096C72.2032 17.272 72.1872 17.44 72.1712 17.6H61.6832V15.416H70.2032L68.7632 16.064C68.7632 15.392 68.6272 14.808 68.3552 14.312C68.0832 13.816 67.7072 13.432 67.2272 13.16C66.7472 12.872 66.1872 12.728 65.5472 12.728C64.9072 12.728 64.3392 12.872 63.8432 13.16C63.3632 13.432 62.9872 13.824 62.7152 14.336C62.4432 14.832 62.3072 15.424 62.3072 16.112V16.688C62.3072 17.392 62.4592 18.016 62.7632 18.56C63.0832 19.088 63.5232 19.496 64.0832 19.784C64.6592 20.056 65.3312 20.192 66.0992 20.192C66.7872 20.192 67.3872 20.088 67.8992 19.88C68.4272 19.672 68.9072 19.36 69.3392 18.944L71.3312 21.104C70.7392 21.776 69.9952 22.296 69.0992 22.664C68.2032 23.016 67.1712 23.192 66.0032 23.192ZM72.7523 23L78.5363 15.416L78.4643 17.48L72.9203 10.088H77.1203L80.6243 14.912L79.0403 14.96L82.6643 10.088H86.6483L81.0803 17.408V15.392L86.8403 23H82.5923L78.9203 17.864L80.4803 18.08L76.8323 23H72.7523ZM93.9377 23.192C92.4177 23.192 91.2337 22.808 90.3857 22.04C89.5377 21.256 89.1137 20.096 89.1137 18.56V7.232H92.8577V18.512C92.8577 19.056 93.0017 19.48 93.2897 19.784C93.5777 20.072 93.9697 20.216 94.4657 20.216C95.0577 20.216 95.5617 20.056 95.9777 19.736L96.9857 22.376C96.6017 22.648 96.1377 22.856 95.5937 23C95.0657 23.128 94.5137 23.192 93.9377 23.192ZM87.1217 13.256V10.376H96.0737V13.256H87.1217Z" fill="black"/>
<path d="M10.104 54.288C8.776 54.288 7.552 54.08 6.432 53.664C5.328 53.232 4.36 52.624 3.528 51.84C2.712 51.056 2.072 50.136 1.608 49.08C1.16 48.024 0.936 46.864 0.936 45.6C0.936 44.336 1.16 43.176 1.608 42.12C2.072 41.064 2.72 40.144 3.552 39.36C4.384 38.576 5.36 37.976 6.48 37.56C7.6 37.128 8.832 36.912 10.176 36.912C11.664 36.912 13 37.16 14.184 37.656C15.384 38.152 16.392 38.872 17.208 39.816L14.712 42.12C14.104 41.48 13.44 41.008 12.72 40.704C12 40.384 11.216 40.224 10.368 40.224C9.552 40.224 8.808 40.352 8.136 40.608C7.464 40.864 6.88 41.232 6.384 41.712C5.904 42.192 5.528 42.76 5.256 43.416C5 44.072 4.872 44.8 4.872 45.6C4.872 46.384 5 47.104 5.256 47.76C5.528 48.416 5.904 48.992 6.384 49.488C6.88 49.968 7.456 50.336 8.112 50.592C8.784 50.848 9.52 50.976 10.32 50.976C11.088 50.976 11.832 50.856 12.552 50.616C13.288 50.36 14 49.936 14.688 49.344L16.896 52.152C15.984 52.84 14.92 53.368 13.704 53.736C12.504 54.104 11.304 54.288 10.104 54.288ZM13.344 51.648V45.336H16.896V52.152L13.344 51.648ZM26.6516 54.192C25.1796 54.192 23.8836 53.904 22.7636 53.328C21.6596 52.752 20.8036 51.968 20.1956 50.976C19.5876 49.968 19.2836 48.824 19.2836 47.544C19.2836 46.248 19.5796 45.104 20.1716 44.112C20.7796 43.104 21.6036 42.32 22.6436 41.76C23.6836 41.184 24.8596 40.896 26.1716 40.896C27.4356 40.896 28.5716 41.168 29.5796 41.712C30.6036 42.24 31.4116 43.008 32.0036 44.016C32.5956 45.008 32.8916 46.2 32.8916 47.592C32.8916 47.736 32.8836 47.904 32.8676 48.096C32.8516 48.272 32.8356 48.44 32.8196 48.6H22.3316V46.416H30.8516L29.4116 47.064C29.4116 46.392 29.2756 45.808 29.0036 45.312C28.7316 44.816 28.3556 44.432 27.8756 44.16C27.3956 43.872 26.8356 43.728 26.1956 43.728C25.5556 43.728 24.9876 43.872 24.4916 44.16C24.0116 44.432 23.6356 44.824 23.3636 45.336C23.0916 45.832 22.9556 46.424 22.9556 47.112V47.688C22.9556 48.392 23.1076 49.016 23.4116 49.56C23.7316 50.088 24.1716 50.496 24.7316 50.784C25.3076 51.056 25.9796 51.192 26.7476 51.192C27.4356 51.192 28.0356 51.088 28.5476 50.88C29.0756 50.672 29.5556 50.36 29.9876 49.944L31.9796 52.104C31.3876 52.776 30.6436 53.296 29.7476 53.664C28.8516 54.016 27.8196 54.192 26.6516 54.192ZM43.2323 40.896C44.2563 40.896 45.1683 41.104 45.9683 41.52C46.7843 41.92 47.4243 42.544 47.8883 43.392C48.3523 44.224 48.5843 45.296 48.5843 46.608V54H44.8403V47.184C44.8403 46.144 44.6083 45.376 44.1443 44.88C43.6963 44.384 43.0563 44.136 42.2243 44.136C41.6323 44.136 41.0963 44.264 40.6163 44.52C40.1523 44.76 39.7843 45.136 39.5123 45.648C39.2563 46.16 39.1283 46.816 39.1283 47.616V54H35.3843V41.088H38.9603V44.664L38.2883 43.584C38.7523 42.72 39.4163 42.056 40.2803 41.592C41.1443 41.128 42.1283 40.896 43.2323 40.896ZM58.4798 54.192C57.0078 54.192 55.7118 53.904 54.5918 53.328C53.4878 52.752 52.6318 51.968 52.0238 50.976C51.4158 49.968 51.1118 48.824 51.1118 47.544C51.1118 46.248 51.4078 45.104 51.9998 44.112C52.6078 43.104 53.4318 42.32 54.4718 41.76C55.5118 41.184 56.6878 40.896 57.9998 40.896C59.2638 40.896 60.3998 41.168 61.4078 41.712C62.4318 42.24 63.2398 43.008 63.8318 44.016C64.4238 45.008 64.7198 46.2 64.7198 47.592C64.7198 47.736 64.7118 47.904 64.6958 48.096C64.6798 48.272 64.6638 48.44 64.6478 48.6H54.1598V46.416H62.6797L61.2398 47.064C61.2398 46.392 61.1038 45.808 60.8318 45.312C60.5598 44.816 60.1838 44.432 59.7038 44.16C59.2238 43.872 58.6638 43.728 58.0238 43.728C57.3838 43.728 56.8158 43.872 56.3198 44.16C55.8398 44.432 55.4638 44.824 55.1918 45.336C54.9198 45.832 54.7838 46.424 54.7838 47.112V47.688C54.7838 48.392 54.9358 49.016 55.2398 49.56C55.5598 50.088 55.9998 50.496 56.5598 50.784C57.1358 51.056 57.8078 51.192 58.5758 51.192C59.2638 51.192 59.8638 51.088 60.3758 50.88C60.9038 50.672 61.3838 50.36 61.8158 49.944L63.8078 52.104C63.2158 52.776 62.4718 53.296 61.5758 53.664C60.6798 54.016 59.6478 54.192 58.4798 54.192ZM67.2124 54V41.088H70.7884V44.736L70.2844 43.68C70.6684 42.768 71.2844 42.08 72.1324 41.616C72.9804 41.136 74.0124 40.896 75.2284 40.896V44.352C75.0684 44.336 74.9244 44.328 74.7964 44.328C74.6684 44.312 74.5324 44.304 74.3884 44.304C73.3644 44.304 72.5324 44.6 71.8924 45.192C71.2684 45.768 70.9564 46.672 70.9564 47.904V54H67.2124ZM84.5308 54V51.48L84.2908 50.928V46.416C84.2908 45.616 84.0428 44.992 83.5468 44.544C83.0668 44.096 82.3228 43.872 81.3148 43.872C80.6268 43.872 79.9468 43.984 79.2748 44.208C78.6188 44.416 78.0588 44.704 77.5948 45.072L76.2508 42.456C76.9548 41.96 77.8028 41.576 78.7948 41.304C79.7868 41.032 80.7948 40.896 81.8188 40.896C83.7868 40.896 85.3148 41.36 86.4028 42.288C87.4908 43.216 88.0348 44.664 88.0348 46.632V54H84.5308ZM80.5948 54.192C79.5868 54.192 78.7228 54.024 78.0028 53.688C77.2828 53.336 76.7308 52.864 76.3468 52.272C75.9628 51.68 75.7708 51.016 75.7708 50.28C75.7708 49.512 75.9548 48.84 76.3228 48.264C76.7068 47.688 77.3068 47.24 78.1228 46.92C78.9388 46.584 80.0028 46.416 81.3148 46.416H84.7468V48.6H81.7228C80.8428 48.6 80.2348 48.744 79.8988 49.032C79.5788 49.32 79.4188 49.68 79.4188 50.112C79.4188 50.592 79.6028 50.976 79.9708 51.264C80.3548 51.536 80.8748 51.672 81.5308 51.672C82.1548 51.672 82.7148 51.528 83.2108 51.24C83.7068 50.936 84.0668 50.496 84.2908 49.92L84.8668 51.648C84.5948 52.48 84.0988 53.112 83.3788 53.544C82.6588 53.976 81.7308 54.192 80.5948 54.192ZM96.7033 54.192C95.1833 54.192 93.9993 53.808 93.1513 53.04C92.3033 52.256 91.8793 51.096 91.8793 49.56V38.232H95.6233V49.512C95.6233 50.056 95.7673 50.48 96.0553 50.784C96.3433 51.072 96.7353 51.216 97.2313 51.216C97.8233 51.216 98.3273 51.056 98.7433 50.736L99.7513 53.376C99.3673 53.648 98.9033 53.856 98.3593 54C97.8313 54.128 97.2793 54.192 96.7033 54.192ZM89.8873 44.256V41.376H98.8393V44.256H89.8873ZM101.853 54V41.088H105.597V54H101.853ZM103.725 39.288C103.037 39.288 102.477 39.088 102.045 38.688C101.613 38.288 101.397 37.792 101.397 37.2C101.397 36.608 101.613 36.112 102.045 35.712C102.477 35.312 103.037 35.112 103.725 35.112C104.413 35.112 104.973 35.304 105.405 35.688C105.837 36.056 106.053 36.536 106.053 37.128C106.053 37.752 105.837 38.272 105.405 38.688C104.989 39.088 104.429 39.288 103.725 39.288ZM115.216 54.192C113.84 54.192 112.616 53.904 111.544 53.328C110.488 52.752 109.648 51.968 109.024 50.976C108.416 49.968 108.112 48.824 108.112 47.544C108.112 46.248 108.416 45.104 109.024 44.112C109.648 43.104 110.488 42.32 111.544 41.76C112.616 41.184 113.84 40.896 115.216 40.896C116.576 40.896 117.792 41.184 118.864 41.76C119.936 42.32 120.776 43.096 121.384 44.088C121.992 45.08 122.296 46.232 122.296 47.544C122.296 48.824 121.992 49.968 121.384 50.976C120.776 51.968 119.936 52.752 118.864 53.328C117.792 53.904 116.576 54.192 115.216 54.192ZM115.216 51.12C115.84 51.12 116.4 50.976 116.896 50.688C117.392 50.4 117.784 49.992 118.072 49.464C118.36 48.92 118.504 48.28 118.504 47.544C118.504 46.792 118.36 46.152 118.072 45.624C117.784 45.096 117.392 44.688 116.896 44.4C116.4 44.112 115.84 43.968 115.216 43.968C114.592 43.968 114.032 44.112 113.536 44.4C113.04 44.688 112.64 45.096 112.336 45.624C112.048 46.152 111.904 46.792 111.904 47.544C111.904 48.28 112.048 48.92 112.336 49.464C112.64 49.992 113.04 50.4 113.536 50.688C114.032 50.976 114.592 51.12 115.216 51.12ZM132.646 40.896C133.67 40.896 134.582 41.104 135.382 41.52C136.198 41.92 136.838 42.544 137.302 43.392C137.766 44.224 137.998 45.296 137.998 46.608V54H134.254V47.184C134.254 46.144 134.022 45.376 133.558 44.88C133.11 44.384 132.47 44.136 131.638 44.136C131.046 44.136 130.51 44.264 130.03 44.52C129.566 44.76 129.198 45.136 128.926 45.648C128.67 46.16 128.542 46.816 128.542 47.616V54H124.798V41.088H128.374V44.664L127.702 43.584C128.166 42.72 128.83 42.056 129.694 41.592C130.558 41.128 131.542 40.896 132.646 40.896Z" fill="black"/>
</svg>
