<svg width="200" height="44" viewBox="0 0 200 44" fill="none" xmlns="http://www.w3.org/2000/svg">
<g clip-path="url(#clip0_429_458)">
<path d="M23.2372 30.8097C22.6198 30.8844 20.834 27.9843 20.834 27.9843C20.834 29.6635 19.9696 31.8547 18.0991 33.4371C19.0014 33.7153 21.0372 34.4639 20.5529 35.2811C20.1609 35.9424 13.8291 35.7033 12.0012 35.4974C10.1732 35.7033 3.84137 35.9424 3.44944 35.2811C2.96489 34.4642 4.99862 33.7161 5.9021 33.4375C4.03139 31.855 3.1668 29.6636 3.1668 27.9843C3.1668 27.9843 1.38105 30.8844 0.76364 30.8097C0.475961 30.7749 0.0980682 29.2217 1.26437 25.4684C1.81407 23.6993 2.44268 22.2285 3.41494 19.8017C3.25128 13.5393 5.83873 8.28621 12.0004 8.28589C18.0935 8.28621 20.7409 13.4359 20.586 19.8018C21.5566 22.2244 22.1884 23.7044 22.7366 25.4684C23.9027 29.2217 23.5249 30.7749 23.2372 30.8097Z" fill="#181818"/>
</g>
<path d="M38.464 33.0002V10.4402H42.56V19.8482H54.176V10.4402H58.272V33.0002H54.176V23.2722H42.56V33.0002H38.464ZM70.606 33.3202C68.9847 33.3202 67.5767 32.9895 66.382 32.3282C65.1873 31.6668 64.2593 30.7282 63.598 29.5122C62.9367 28.2748 62.606 26.8242 62.606 25.1602C62.606 23.4962 62.9367 22.0562 63.598 20.8402C64.2593 19.6242 65.1873 18.6855 66.382 18.0242C67.5767 17.3628 68.9847 17.0322 70.606 17.0322C72.2273 17.0322 73.6353 17.3628 74.83 18.0242C76.0247 18.6855 76.9527 19.6242 77.614 20.8402C78.2753 22.0562 78.606 23.4962 78.606 25.1602C78.606 26.8242 78.2753 28.2748 77.614 29.5122C76.9527 30.7282 76.0247 31.6668 74.83 32.3282C73.6353 32.9895 72.2273 33.3202 70.606 33.3202ZM70.606 30.2802C71.8007 30.2802 72.7607 29.8535 73.486 29.0002C74.2113 28.1255 74.574 26.8455 74.574 25.1602C74.574 23.4535 74.2113 22.1842 73.486 21.3522C72.7607 20.4988 71.8007 20.0722 70.606 20.0722C69.4113 20.0722 68.4513 20.4988 67.726 21.3522C67.0007 22.1842 66.638 23.4535 66.638 25.1602C66.638 26.8455 67.0007 28.1255 67.726 29.0002C68.4513 29.8535 69.4113 30.2802 70.606 30.2802ZM87.9875 33.3202C86.1315 33.3202 84.7555 32.8188 83.8595 31.8162C82.9848 30.7922 82.5475 29.2988 82.5475 27.3362V10.4402H86.5475V27.1442C86.5475 29.0642 87.3582 30.0242 88.9795 30.0242C89.2142 30.0242 89.4488 30.0135 89.6835 29.9922C89.9182 29.9708 90.1422 29.9282 90.3555 29.8642L90.2915 33.0322C89.5235 33.2242 88.7555 33.3202 87.9875 33.3202ZM98.5582 33.3202C97.4276 33.3202 96.4142 33.1068 95.5182 32.6802C94.6436 32.2322 93.9502 31.6348 93.4382 30.8882C92.9476 30.1415 92.7022 29.2988 92.7022 28.3602C92.7022 27.2082 93.0009 26.3015 93.5982 25.6402C94.1956 24.9575 95.1662 24.4668 96.5102 24.1682C97.8542 23.8695 99.6569 23.7202 101.918 23.7202H103.038V23.0482C103.038 21.9815 102.804 21.2135 102.334 20.7442C101.865 20.2748 101.076 20.0402 99.9662 20.0402C99.0916 20.0402 98.1956 20.1788 97.2782 20.4562C96.3609 20.7122 95.4329 21.1175 94.4942 21.6722L93.3422 18.9522C93.8969 18.5682 94.5476 18.2375 95.2942 17.9602C96.0622 17.6615 96.8622 17.4375 97.6942 17.2882C98.5476 17.1175 99.3476 17.0322 100.094 17.0322C102.377 17.0322 104.073 17.5655 105.182 18.6322C106.292 19.6775 106.846 21.3095 106.846 23.5282V33.0002H103.102V30.5042C102.74 31.3788 102.164 32.0722 101.374 32.5842C100.585 33.0748 99.6462 33.3202 98.5582 33.3202ZM99.3902 30.5682C100.436 30.5682 101.3 30.2055 101.982 29.4802C102.686 28.7548 103.038 27.8375 103.038 26.7282V26.0242H101.95C99.9449 26.0242 98.5476 26.1842 97.7582 26.5042C96.9902 26.8028 96.6062 27.3575 96.6062 28.1682C96.6062 28.8722 96.8516 29.4482 97.3422 29.8962C97.8329 30.3442 98.5156 30.5682 99.3902 30.5682ZM111.93 33.0002V10.4402H115.002L127.13 26.1842V10.4402H130.938V33.0002H127.898L115.738 17.1922V33.0002H111.93ZM143.26 33.3202C141.638 33.3202 140.23 32.9895 139.036 32.3282C137.841 31.6668 136.913 30.7282 136.252 29.5122C135.59 28.2748 135.26 26.8242 135.26 25.1602C135.26 23.4962 135.59 22.0562 136.252 20.8402C136.913 19.6242 137.841 18.6855 139.036 18.0242C140.23 17.3628 141.638 17.0322 143.26 17.0322C144.881 17.0322 146.289 17.3628 147.484 18.0242C148.678 18.6855 149.606 19.6242 150.268 20.8402C150.929 22.0562 151.26 23.4962 151.26 25.1602C151.26 26.8242 150.929 28.2748 150.268 29.5122C149.606 30.7282 148.678 31.6668 147.484 32.3282C146.289 32.9895 144.881 33.3202 143.26 33.3202ZM143.26 30.2802C144.454 30.2802 145.414 29.8535 146.14 29.0002C146.865 28.1255 147.228 26.8455 147.228 25.1602C147.228 23.4535 146.865 22.1842 146.14 21.3522C145.414 20.4988 144.454 20.0722 143.26 20.0722C142.065 20.0722 141.105 20.4988 140.38 21.3522C139.654 22.1842 139.292 23.4535 139.292 25.1602C139.292 26.8455 139.654 28.1255 140.38 29.0002C141.105 29.8535 142.065 30.2802 143.26 30.2802ZM162.213 33.3202C158.074 33.3202 156.005 31.2722 156.005 27.1762V20.3602H152.997V17.3522H156.005V12.6802H160.005V17.3522H164.741V20.3602H160.005V26.9522C160.005 27.9762 160.229 28.7442 160.677 29.2562C161.125 29.7682 161.85 30.0242 162.853 30.0242C163.152 30.0242 163.461 29.9922 163.781 29.9282C164.101 29.8428 164.432 29.7575 164.773 29.6722L165.381 32.6162C164.997 32.8295 164.506 33.0002 163.909 33.1282C163.333 33.2562 162.768 33.3202 162.213 33.3202ZM175.522 33.3202C173.751 33.3202 172.226 32.9895 170.946 32.3282C169.666 31.6668 168.674 30.7282 167.97 29.5122C167.287 28.2962 166.946 26.8562 166.946 25.1922C166.946 23.5708 167.277 22.1522 167.938 20.9362C168.621 19.7202 169.549 18.7708 170.722 18.0882C171.917 17.3842 173.271 17.0322 174.786 17.0322C177.005 17.0322 178.754 17.7362 180.034 19.1442C181.335 20.5522 181.986 22.4722 181.986 24.9042V26.0882H170.786C171.085 28.8828 172.685 30.2802 175.586 30.2802C176.461 30.2802 177.335 30.1522 178.21 29.8962C179.085 29.6188 179.885 29.1922 180.61 28.6162L181.73 31.3042C180.983 31.9228 180.045 32.4135 178.914 32.7762C177.783 33.1388 176.653 33.3202 175.522 33.3202ZM174.946 19.7522C173.773 19.7522 172.823 20.1148 172.098 20.8402C171.373 21.5655 170.935 22.5468 170.786 23.7842H178.658C178.573 22.4828 178.21 21.4908 177.57 20.8082C176.951 20.1042 176.077 19.7522 174.946 19.7522ZM191.522 33.3202C190.199 33.3202 188.962 33.1602 187.81 32.8402C186.658 32.5202 185.698 32.0615 184.93 31.4642L185.954 28.8402C186.743 29.3735 187.628 29.7895 188.61 30.0882C189.591 30.3655 190.572 30.5042 191.554 30.5042C192.578 30.5042 193.335 30.3335 193.826 29.9922C194.338 29.6295 194.594 29.1602 194.594 28.5842C194.594 27.6882 193.932 27.1122 192.61 26.8562L189.41 26.2482C186.7 25.7362 185.346 24.3282 185.346 22.0242C185.346 21.0002 185.623 20.1148 186.178 19.3682C186.754 18.6215 187.543 18.0455 188.546 17.6402C189.548 17.2348 190.7 17.0322 192.002 17.0322C193.111 17.0322 194.178 17.1922 195.202 17.5122C196.226 17.8108 197.1 18.2695 197.826 18.8882L196.738 21.5122C196.119 21.0002 195.372 20.5948 194.498 20.2962C193.644 19.9975 192.823 19.8482 192.034 19.8482C190.988 19.8482 190.21 20.0295 189.698 20.3922C189.207 20.7548 188.962 21.2348 188.962 21.8322C188.962 22.7708 189.57 23.3468 190.786 23.5602L193.986 24.1682C195.372 24.4242 196.418 24.8935 197.122 25.5762C197.847 26.2588 198.21 27.1762 198.21 28.3282C198.21 29.8855 197.602 31.1122 196.386 32.0082C195.17 32.8828 193.548 33.3202 191.522 33.3202Z" fill="#181818"/>
<defs>
<clipPath id="clip0_429_458">
<rect width="24" height="27.4286" fill="white" transform="translate(0 8.28589)"/>
</clipPath>
</defs>
</svg>
