<svg width="298" height="67" viewBox="0 0 298 67" fill="none" xmlns="http://www.w3.org/2000/svg">
<g clip-path="url(#clip0_32_288)">
<path d="M1.7058 14.4084C17.0955 -12.81 76.5556 -3.59797 70.9594 66.7521C58.3678 44.1861 -11.7437 56.3042 1.7058 14.4084Z" fill="url(#paint0_linear_32_288)"/>
<path d="M107.383 47.4583V19.0341H113.407V31.5669H113.782L124.035 19.0341H131.255L120.682 31.7612L131.38 47.4583H124.174L116.37 35.7721L113.407 39.3808V47.4583H107.383ZM140.373 47.8609C139.01 47.8609 137.795 47.6249 136.729 47.1529C135.662 46.6719 134.818 45.9641 134.197 45.0295C133.585 44.0857 133.279 42.9107 133.279 41.5043C133.279 40.3199 133.497 39.3252 133.933 38.5203C134.369 37.7153 134.962 37.0676 135.713 36.5771C136.464 36.0868 137.318 35.7167 138.273 35.4669C139.237 35.217 140.249 35.0413 141.305 34.9394C142.548 34.8099 143.549 34.6897 144.31 34.5786C145.071 34.4584 145.623 34.2825 145.965 34.0512C146.308 33.8199 146.48 33.4775 146.48 33.0242V32.9408C146.48 32.0619 146.202 31.3818 145.645 30.9007C145.098 30.4195 144.32 30.1789 143.309 30.1789C142.243 30.1789 141.393 30.4149 140.762 30.8867C140.133 31.3494 139.715 31.9323 139.511 32.6356L134.03 32.1914C134.308 30.8961 134.855 29.7765 135.671 28.8326C136.488 27.8797 137.54 27.1487 138.829 26.6398C140.127 26.1216 141.63 25.8626 143.337 25.8626C144.523 25.8626 145.659 26.0013 146.745 26.2789C147.839 26.5566 148.808 26.9868 149.652 27.5697C150.505 28.1526 151.178 28.9021 151.669 29.8181C152.161 30.7248 152.407 31.812 152.407 33.0797V47.4583H146.787V44.5021H146.62C146.276 45.1683 145.817 45.7558 145.242 46.2648C144.667 46.7643 143.976 47.1577 143.17 47.4445C142.363 47.722 141.431 47.8609 140.373 47.8609ZM142.07 43.7805C142.942 43.7805 143.712 43.6092 144.38 43.2669C145.048 42.9153 145.571 42.4434 145.951 41.8513C146.332 41.259 146.522 40.5882 146.522 39.8388V37.5765C146.336 37.6967 146.082 37.8078 145.757 37.9096C145.442 38.0021 145.084 38.0901 144.685 38.1733C144.287 38.2472 143.888 38.3167 143.489 38.3815C143.09 38.4369 142.729 38.4879 142.405 38.5341C141.71 38.636 141.101 38.7979 140.582 39.0198C140.063 39.2419 139.659 39.5427 139.372 39.9221C139.084 40.2921 138.941 40.7547 138.941 41.31C138.941 42.115 139.233 42.7302 139.817 43.1558C140.411 43.5722 141.161 43.7805 142.07 43.7805ZM168.37 26.1402V30.5815H155.501V26.1402H168.37ZM158.423 21.0327H164.349V40.9074C164.349 41.4533 164.433 41.8789 164.6 42.1843C164.766 42.4804 164.998 42.6886 165.295 42.8088C165.601 42.9291 165.954 42.9893 166.353 42.9893C166.631 42.9893 166.909 42.9661 167.188 42.9199C167.465 42.8644 167.679 42.8228 167.827 42.795L168.759 47.1947C168.462 47.2872 168.045 47.3936 167.507 47.5139C166.97 47.6434 166.315 47.722 165.545 47.7498C164.117 47.8053 162.865 47.6157 161.79 47.1807C160.723 46.7459 159.893 46.0705 159.3 45.1544C158.705 44.2384 158.414 43.0818 158.423 41.6846V21.0327ZM178.323 47.8609C176.96 47.8609 175.744 47.6249 174.678 47.1529C173.612 46.6719 172.767 45.9641 172.146 45.0295C171.535 44.0857 171.228 42.9107 171.228 41.5043C171.228 40.3199 171.447 39.3252 171.882 38.5203C172.318 37.7153 172.911 37.0676 173.663 36.5771C174.414 36.0868 175.267 35.7167 176.223 35.4669C177.187 35.217 178.198 35.0413 179.255 34.9394C180.497 34.8099 181.499 34.6897 182.26 34.5786C183.021 34.4584 183.572 34.2825 183.915 34.0512C184.258 33.8199 184.43 33.4775 184.43 33.0242V32.9408C184.43 32.0619 184.151 31.3818 183.595 30.9007C183.048 30.4195 182.27 30.1789 181.258 30.1789C180.192 30.1789 179.343 30.4149 178.712 30.8867C178.082 31.3494 177.664 31.9323 177.461 32.6356L171.98 32.1914C172.258 30.8961 172.805 29.7765 173.621 28.8326C174.438 27.8797 175.49 27.1487 176.778 26.6398C178.077 26.1216 179.579 25.8626 181.286 25.8626C182.473 25.8626 183.609 26.0013 184.694 26.2789C185.788 26.5566 186.758 26.9868 187.602 27.5697C188.455 28.1526 189.128 28.9021 189.619 29.8181C190.11 30.7248 190.356 31.812 190.356 33.0797V47.4583H184.736V44.5021H184.57C184.226 45.1683 183.767 45.7558 183.192 46.2648C182.617 46.7643 181.926 47.1577 181.12 47.4445C180.312 47.722 179.381 47.8609 178.323 47.8609ZM180.02 43.7805C180.892 43.7805 181.661 43.6092 182.33 43.2669C182.997 42.9153 183.52 42.4434 183.901 41.8513C184.282 41.259 184.472 40.5882 184.472 39.8388V37.5765C184.286 37.6967 184.031 37.8078 183.707 37.9096C183.392 38.0021 183.034 38.0901 182.635 38.1733C182.236 38.2472 181.837 38.3167 181.439 38.3815C181.04 38.4369 180.679 38.4879 180.354 38.5341C179.659 38.636 179.05 38.7979 178.531 39.0198C178.012 39.2419 177.609 39.5427 177.321 39.9221C177.034 40.2921 176.89 40.7547 176.89 41.31C176.89 42.115 177.183 42.7302 177.766 43.1558C178.361 43.5722 179.111 43.7805 180.02 43.7805ZM200.88 19.0341V47.4583H194.954V19.0341H200.88ZM211.72 47.8609C210.357 47.8609 209.142 47.6249 208.075 47.1529C207.009 46.6719 206.164 45.9641 205.543 45.0295C204.932 44.0857 204.625 42.9107 204.625 41.5043C204.625 40.3199 204.844 39.3252 205.279 38.5203C205.715 37.7153 206.308 37.0676 207.06 36.5771C207.811 36.0868 208.664 35.7167 209.62 35.4669C210.584 35.217 211.595 35.0413 212.652 34.9394C213.896 34.8099 214.896 34.6897 215.657 34.5786C216.418 34.4584 216.969 34.2825 217.312 34.0512C217.656 33.8199 217.827 33.4775 217.827 33.0242V32.9408C217.827 32.0619 217.548 31.3818 216.993 30.9007C216.445 30.4195 215.667 30.1789 214.655 30.1789C213.589 30.1789 212.74 30.4149 212.11 30.8867C211.479 31.3494 211.061 31.9323 210.858 32.6356L205.377 32.1914C205.655 30.8961 206.202 29.7765 207.018 28.8326C207.835 27.8797 208.887 27.1487 210.175 26.6398C211.474 26.1216 212.976 25.8626 214.683 25.8626C215.871 25.8626 217.007 26.0013 218.091 26.2789C219.185 26.5566 220.155 26.9868 220.999 27.5697C221.852 28.1526 222.525 28.9021 223.016 29.8181C223.507 30.7248 223.753 31.812 223.753 33.0797V47.4583H218.133V44.5021H217.967C217.623 45.1683 217.164 45.7558 216.589 46.2648C216.014 46.7643 215.323 47.1577 214.517 47.4445C213.709 47.722 212.778 47.8609 211.72 47.8609ZM213.417 43.7805C214.289 43.7805 215.058 43.6092 215.727 43.2669C216.394 42.9153 216.919 42.4434 217.298 41.8513C217.679 41.259 217.869 40.5882 217.869 39.8388V37.5765C217.683 37.6967 217.428 37.8078 217.104 37.9096C216.789 38.0021 216.432 38.0901 216.033 38.1733C215.633 38.2472 215.234 38.3167 214.836 38.3815C214.437 38.4369 214.076 38.4879 213.751 38.5341C213.056 38.636 212.447 38.7979 211.928 39.0198C211.409 39.2419 211.006 39.5427 210.718 39.9221C210.431 40.2921 210.287 40.7547 210.287 41.31C210.287 42.115 210.58 42.7302 211.163 43.1558C211.758 43.5722 212.509 43.7805 213.417 43.7805ZM238.006 47.8747C235.844 47.8747 233.976 47.4167 232.399 46.5007C230.831 45.5754 229.621 44.2892 228.768 42.6423C227.915 40.9861 227.489 39.0662 227.489 36.8825C227.489 34.6803 227.915 32.7559 228.768 31.1088C229.621 29.4526 230.831 28.1665 232.399 27.2504C233.976 26.3251 235.844 25.8626 238.006 25.8626C240.166 25.8626 242.031 26.3251 243.598 27.2504C245.174 28.1665 246.389 29.4526 247.242 31.1088C248.096 32.7559 248.522 34.6803 248.522 36.8825C248.522 39.0662 248.096 40.9861 247.242 42.6423C246.389 44.2892 245.174 45.5754 243.598 46.5007C242.031 47.4167 240.166 47.8747 238.006 47.8747ZM238.034 43.2946C239.016 43.2946 239.837 43.0171 240.496 42.462C241.153 41.8975 241.65 41.1295 241.984 40.158C242.327 39.1865 242.498 38.0807 242.498 36.8409C242.498 35.601 242.327 34.4954 241.984 33.5237C241.65 32.5522 241.153 31.7843 240.496 31.2199C239.837 30.6554 239.016 30.3732 238.034 30.3732C237.04 30.3732 236.206 30.6554 235.529 31.2199C234.862 31.7843 234.355 32.5522 234.013 33.5237C233.678 34.4954 233.512 35.601 233.512 36.8409C233.512 38.0807 233.678 39.1865 234.013 40.158C234.355 41.1295 234.862 41.8975 235.529 42.462C236.206 43.0171 237.04 43.2946 238.034 43.2946ZM262.002 55.8969C260.083 55.8969 258.436 55.633 257.064 55.1057C255.699 54.5876 254.615 53.8797 253.808 52.9822C253.002 52.0847 252.477 51.0762 252.237 49.9566L257.717 49.221C257.885 49.6466 258.148 50.0444 258.51 50.4146C258.873 50.7846 259.35 51.0808 259.943 51.3029C260.546 51.5342 261.279 51.6497 262.141 51.6497C263.431 51.6497 264.493 51.3353 265.326 50.706C266.17 50.0861 266.593 49.0451 266.593 47.5833V43.6833H266.342C266.082 44.2754 265.693 44.8352 265.174 45.3626C264.655 45.89 263.986 46.3203 263.17 46.6534C262.355 46.9864 261.381 47.1529 260.249 47.1529C258.644 47.1529 257.184 46.7829 255.867 46.0427C254.559 45.2933 253.516 44.1505 252.738 42.6145C251.967 41.0693 251.582 39.117 251.582 36.7576C251.582 34.3427 251.977 32.3256 252.764 30.7064C253.553 29.0871 254.601 27.8751 255.909 27.0701C257.226 26.2651 258.668 25.8626 260.235 25.8626C261.431 25.8626 262.433 26.0661 263.24 26.4732C264.046 26.8711 264.695 27.3708 265.188 27.9722C265.689 28.5643 266.073 29.1472 266.342 29.7209H266.565V26.1402H272.449V47.6665C272.449 49.4801 272.004 50.9975 271.114 52.2188C270.223 53.4402 268.991 54.3563 267.414 54.9669C265.845 55.5868 264.042 55.8969 262.002 55.8969ZM262.127 42.7117C263.082 42.7117 263.89 42.4758 264.547 42.0038C265.216 41.5227 265.725 40.838 266.078 39.9497C266.44 39.0522 266.621 37.979 266.621 36.7298C266.621 35.4807 266.444 34.3982 266.092 33.4821C265.739 32.5568 265.23 31.8398 264.561 31.3309C263.894 30.822 263.082 30.5675 262.127 30.5675C261.153 30.5675 260.333 30.8313 259.664 31.3587C258.997 31.8768 258.492 32.5986 258.148 33.5237C257.805 34.449 257.634 35.5177 257.634 36.7298C257.634 37.9604 257.805 39.0246 258.148 39.9221C258.5 40.8103 259.007 41.4997 259.664 41.99C260.333 42.4712 261.153 42.7117 262.127 42.7117ZM280.824 55.4527C280.072 55.4527 279.367 55.3925 278.71 55.2722C278.059 55.1612 277.522 55.0178 277.095 54.842L278.431 50.4284C279.127 50.6413 279.752 50.757 280.309 50.7754C280.874 50.794 281.361 50.6644 281.77 50.3868C282.186 50.1092 282.525 49.6374 282.785 48.9711L283.132 48.069L275.468 26.1402H281.7L286.123 41.7957H286.346L290.812 26.1402H297.085L288.78 49.7623C288.382 50.9095 287.84 51.9088 287.153 52.7601C286.476 53.6207 285.618 54.2822 284.58 54.7449C283.541 55.2167 282.289 55.4527 280.824 55.4527Z" fill="black"/>
</g>
<defs>
<linearGradient id="paint0_linear_32_288" x1="71.3296" y1="33.5" x2="0" y2="33.5" gradientUnits="userSpaceOnUse">
<stop stop-color="#FF9901"/>
<stop offset="1" stop-color="#FF9901" stop-opacity="0.54"/>
</linearGradient>
<clipPath id="clip0_32_288">
<rect width="298" height="67" fill="white"/>
</clipPath>
</defs>
</svg>
