<svg width="309" height="60" viewBox="0 0 309 60" fill="none" xmlns="http://www.w3.org/2000/svg">
<path d="M50.8719 21.2775C53.0927 21.9876 54.6401 24.0975 54.6401 26.52V37.2351C54.6401 40.0749 52.5124 42.4851 49.666 42.7176C48.8119 42.7851 47.9576 42.8475 47.1036 42.8976V50.625L39.567 43.125C36.1655 43.125 32.7991 42.9876 29.468 42.7176C28.7427 42.6593 28.0373 42.4532 27.3954 42.1125M50.8719 21.2775C50.4837 21.1532 50.0824 21.0735 49.676 21.0399C42.9483 20.4842 36.1857 20.4842 29.458 21.0399C26.6167 21.2751 24.4938 23.6826 24.4938 26.52V37.2351C24.4938 39.3276 25.6494 41.1849 27.3954 42.1125M50.8719 21.2775V16.5925C50.8719 12.54 47.9778 9.02751 43.9382 8.505C38.74 7.83448 33.5038 7.49878 28.2621 7.5C22.9488 7.5 17.7159 7.84251 12.586 8.505C8.54639 9.02751 5.65234 12.54 5.65234 16.5925V32.1576C5.65234 36.21 8.54639 39.7224 12.586 40.245C14.0355 40.4325 15.4926 40.5951 16.9572 40.7301V52.5L27.3954 42.1125" stroke="#FE876D" stroke-width="2.5" stroke-linecap="round" stroke-linejoin="round"/>
<path d="M89.8823 45.9375H78.2241V13.2102H89.9787C93.2867 13.2102 96.1343 13.8654 98.5217 15.1758C100.909 16.4755 102.745 18.3452 104.03 20.7847C105.325 23.2245 105.973 26.1435 105.973 29.5419C105.973 32.951 105.325 35.8807 104.03 38.331C102.745 40.7812 100.898 42.6615 98.4894 43.9719C96.0915 45.2824 93.2225 45.9375 89.8823 45.9375ZM85.1774 40.0089H89.5933C91.6487 40.0089 93.3777 39.6467 94.7801 38.9222C96.1932 38.1872 97.2531 37.0526 97.9596 35.5185C98.6769 33.9737 99.0355 31.9815 99.0355 29.5419C99.0355 27.1235 98.6769 25.1473 97.9596 23.6134C97.2531 22.0792 96.1985 20.9499 94.7961 20.2254C93.3938 19.5011 91.6649 19.1389 89.6095 19.1389H85.1774V40.0089ZM123.14 46.4169C120.603 46.4169 118.419 45.9056 116.588 44.8828C114.768 43.8495 113.366 42.39 112.381 40.5043C111.396 38.6079 110.904 36.3654 110.904 33.7766C110.904 31.2517 111.396 29.0359 112.381 27.129C113.366 25.2219 114.752 23.7358 116.54 22.6704C118.338 21.605 120.447 21.0724 122.867 21.0724C124.494 21.0724 126.009 21.3334 127.411 21.8554C128.824 22.3669 130.055 23.1392 131.105 24.1725C132.164 25.206 132.989 26.5057 133.578 28.0717C134.166 29.627 134.461 31.4488 134.461 33.537V35.4065H113.633V31.1878H128.021C128.021 30.2077 127.807 29.3394 127.379 28.583C126.951 27.8267 126.357 27.2355 125.597 26.8093C124.847 26.3724 123.975 26.1542 122.979 26.1542C121.941 26.1542 121.02 26.3938 120.217 26.8732C119.425 27.342 118.804 27.9759 118.354 28.7749C117.905 29.5631 117.675 30.4421 117.664 31.4115V35.4225C117.664 36.6371 117.889 37.6864 118.338 38.5706C118.799 39.4549 119.446 40.1366 120.281 40.616C121.116 41.0955 122.107 41.3353 123.252 41.3353C124.012 41.3353 124.708 41.2286 125.34 41.0156C125.971 40.8026 126.512 40.4829 126.962 40.0567C127.411 39.6307 127.754 39.1087 127.989 38.4907L134.316 38.9062C133.995 40.419 133.337 41.7401 132.341 42.8692C131.356 43.9879 130.082 44.8614 128.519 45.4901C126.967 46.1079 125.174 46.4169 123.14 46.4169ZM162.162 21.392L153.539 45.9375H145.831L137.208 21.392H144.434L149.556 38.9542H149.813L154.92 21.392H162.162Z" fill="#13102D"/>
<path d="M166.695 45.9375V13.2102H188.469V18.9152H173.648V26.7135H187.025V32.4184H173.648V45.9375H166.695ZM203.256 46.4169C200.763 46.4169 198.606 45.8895 196.786 44.8348C194.975 43.7694 193.579 42.2887 192.593 40.3924C191.61 38.4855 191.116 36.2749 191.116 33.7607C191.116 31.2251 191.61 29.0092 192.593 27.1129C193.579 25.206 194.975 23.7251 196.786 22.6704C198.606 21.605 200.763 21.0724 203.256 21.0724C205.75 21.0724 207.902 21.605 209.713 22.6704C211.531 23.7251 212.935 25.206 213.918 27.1129C214.904 29.0092 215.397 31.2251 215.397 33.7607C215.397 36.2749 214.904 38.4855 213.918 40.3924C212.935 42.2887 211.531 43.7694 209.713 44.8348C207.902 45.8895 205.75 46.4169 203.256 46.4169ZM203.288 41.1435C204.424 41.1435 205.372 40.8238 206.131 40.1846C206.89 39.5347 207.463 38.6505 207.849 37.5319C208.245 36.4134 208.443 35.1403 208.443 33.7127C208.443 32.2852 208.245 31.0121 207.849 29.8935C207.463 28.7749 206.89 27.8906 206.131 27.2407C205.372 26.5909 204.424 26.2659 203.288 26.2659C202.142 26.2659 201.18 26.5909 200.398 27.2407C199.627 27.8906 199.045 28.7749 198.647 29.8935C198.263 31.0121 198.071 32.2852 198.071 33.7127C198.071 35.1403 198.263 36.4134 198.647 37.5319C199.045 38.6505 199.627 39.5347 200.398 40.1846C201.18 40.8238 202.142 41.1435 203.288 41.1435ZM220.748 45.9375V21.392H227.38V25.6747H227.639C228.087 24.1513 228.843 23.0006 229.901 22.223C230.962 21.4346 232.183 21.0405 233.564 21.0405C233.905 21.0405 234.275 21.0619 234.672 21.1044C235.068 21.147 235.414 21.2057 235.716 21.2801V27.3206C235.394 27.2248 234.949 27.1395 234.382 27.065C233.815 26.9904 233.295 26.9531 232.824 26.9531C231.818 26.9531 230.919 27.1715 230.128 27.6082C229.346 28.0344 228.724 28.631 228.264 29.3981C227.814 30.1652 227.59 31.0494 227.59 32.0509V45.9375H220.748ZM255.974 35.4864V21.392H262.814V45.9375H256.246V41.4791H255.989C255.434 42.9172 254.507 44.0732 253.212 44.9467C251.927 45.8203 250.358 46.2572 248.506 46.2572C246.857 46.2572 245.408 45.8842 244.155 45.1385C242.902 44.3927 241.922 43.3327 241.216 41.9584C240.52 40.5842 240.166 38.9381 240.157 37.0205V21.392H246.996V35.8061C247.008 37.2549 247.398 38.4002 248.17 39.2419C248.941 40.0834 249.973 40.5043 251.268 40.5043C252.093 40.5043 252.864 40.3177 253.581 39.945C254.297 39.5614 254.876 38.9968 255.315 38.2511C255.765 37.5052 255.984 36.5839 255.974 35.4864ZM269.19 45.9375V21.392H275.711V25.7227H275.999C276.513 24.2844 277.369 23.1499 278.569 22.3189C279.767 21.4879 281.201 21.0724 282.872 21.0724C284.562 21.0724 286.004 21.4933 287.191 22.3348C288.38 23.1658 289.171 24.2951 289.569 25.7227H289.825C290.328 24.3165 291.238 23.1924 292.555 22.3509C293.881 21.4985 295.451 21.0724 297.26 21.0724C299.562 21.0724 301.429 21.8021 302.865 23.2616C304.31 24.7106 305.032 26.7667 305.032 29.43V45.9375H298.207V30.7723C298.207 29.4088 297.844 28.386 297.115 27.7042C296.387 27.0223 295.477 26.6814 294.386 26.6814C293.143 26.6814 292.174 27.0755 291.479 27.864C290.784 28.6417 290.435 29.6698 290.435 30.9482V45.9375H283.803V30.6285C283.803 29.4247 283.455 28.4659 282.759 27.752C282.073 27.0384 281.169 26.6814 280.046 26.6814C279.285 26.6814 278.601 26.8732 277.991 27.2567C277.391 27.6296 276.915 28.1569 276.56 28.8388C276.208 29.5099 276.031 30.2983 276.031 31.2037V45.9375H269.19Z" fill="#FE876D"/>
</svg>
