<svg width="318" height="89" viewBox="0 0 318 89" fill="none" xmlns="http://www.w3.org/2000/svg">
<path d="M21.5 50.5L24.7373 55.6787C25.2765 56.5419 26.0264 57.2537 26.9165 57.7473C27.8066 58.2408 28.8076 58.4999 29.8253 58.5H35.1747C37.244 58.5 39.1667 57.4333 40.2627 55.6787L43.5 50.5M6.92667 36.5H19.2893C20.2771 36.5001 21.2495 36.744 22.1203 37.2101C22.9912 37.6762 23.7335 38.3501 24.2813 39.172L24.7187 39.828C25.2665 40.6499 26.0088 41.3238 26.8797 41.7899C27.7505 42.256 28.7229 42.4999 29.7107 42.5H35.2893C36.2771 42.4999 37.2495 42.256 38.1203 41.7899C38.9912 41.3238 39.7335 40.6499 40.2813 39.828L40.7187 39.172C41.2665 38.3501 42.0088 37.6762 42.8797 37.2101C43.7505 36.744 44.7229 36.5001 45.7107 36.5H58.0733M6.92667 36.5C6.64523 37.2059 6.50044 37.9588 6.5 38.7187V44.5C6.5 46.0913 7.13214 47.6174 8.25736 48.7426C9.38258 49.8679 10.9087 50.5 12.5 50.5H52.5C54.0913 50.5 55.6174 49.8679 56.7426 48.7426C57.8679 47.6174 58.5 46.0913 58.5 44.5V38.7187C58.5 37.9533 58.3533 37.1987 58.0733 36.5M6.92667 36.5C7.17108 35.886 7.51528 35.3165 7.94533 34.8147L16.7053 24.596C17.2684 23.9388 17.9671 23.4112 18.7532 23.0494C19.5394 22.6877 20.3946 22.5002 21.26 22.5H43.74C45.492 22.5 47.156 23.2653 48.2973 24.596L57.0547 34.8147C57.4893 35.3213 57.8307 35.892 58.0733 36.5M12.5 66.5H52.5C54.0913 66.5 55.6174 65.8679 56.7426 64.7426C57.8679 63.6174 58.5 62.0913 58.5 60.5V53.5C58.5 51.844 57.156 50.5 55.5 50.5H9.5C7.844 50.5 6.5 51.844 6.5 53.5V60.5C6.5 62.0913 7.13214 63.6174 8.25736 64.7426C9.38258 65.8679 10.9087 66.5 12.5 66.5Z" stroke="#181923" stroke-width="3" stroke-linecap="round" stroke-linejoin="round"/>
<path d="M94.5767 43L86.2528 13.9091H92.9716L97.7869 34.1222H98.0284L103.341 13.9091H109.094L114.392 34.1648H114.648L119.463 13.9091H126.182L117.858 43H111.864L106.324 23.9801H106.097L100.571 43H94.5767ZM133.238 43.4119C131.846 43.4119 130.605 43.1705 129.516 42.6875C128.427 42.1951 127.566 41.4706 126.931 40.5142C126.306 39.5483 125.994 38.3456 125.994 36.9062C125.994 35.6941 126.216 34.6761 126.661 33.8523C127.106 33.0284 127.712 32.3655 128.479 31.8636C129.246 31.3617 130.118 30.983 131.093 30.7273C132.078 30.4716 133.11 30.2917 134.19 30.1875C135.459 30.0549 136.481 29.9318 137.258 29.8182C138.034 29.6951 138.598 29.5152 138.948 29.2784C139.299 29.0417 139.474 28.6913 139.474 28.2273V28.142C139.474 27.2424 139.19 26.5464 138.621 26.054C138.063 25.5616 137.267 25.3153 136.235 25.3153C135.146 25.3153 134.28 25.5568 133.636 26.0398C132.992 26.5133 132.566 27.1098 132.357 27.8295L126.761 27.375C127.045 26.0492 127.603 24.9034 128.437 23.9375C129.27 22.9621 130.345 22.214 131.661 21.6932C132.987 21.1629 134.521 20.8977 136.263 20.8977C137.476 20.8977 138.636 21.0398 139.744 21.3239C140.861 21.608 141.851 22.0483 142.712 22.6449C143.584 23.2415 144.27 24.0085 144.772 24.946C145.274 25.8741 145.525 26.9867 145.525 28.2841V43H139.786V39.9744H139.616C139.265 40.6562 138.797 41.2576 138.21 41.7784C137.622 42.2898 136.917 42.6922 136.093 42.9858C135.269 43.2699 134.317 43.4119 133.238 43.4119ZM134.971 39.2358C135.861 39.2358 136.647 39.0606 137.329 38.7102C138.011 38.3504 138.546 37.8674 138.934 37.2614C139.322 36.6553 139.516 35.9687 139.516 35.2017V32.8864C139.327 33.0095 139.067 33.1231 138.735 33.2273C138.413 33.322 138.049 33.4119 137.641 33.4972C137.234 33.5729 136.827 33.6439 136.42 33.7102C136.013 33.767 135.643 33.8191 135.312 33.8665C134.602 33.9706 133.981 34.1364 133.451 34.3636C132.921 34.5909 132.509 34.8987 132.215 35.2869C131.922 35.6657 131.775 36.1392 131.775 36.7074C131.775 37.5312 132.073 38.161 132.67 38.5966C133.276 39.0227 134.043 39.2358 134.971 39.2358ZM150.219 43V21.1818H156.086V24.9886H156.313C156.711 23.6345 157.379 22.6117 158.316 21.9205C159.254 21.2197 160.333 20.8693 161.555 20.8693C161.858 20.8693 162.184 20.8883 162.535 20.9261C162.885 20.964 163.193 21.0161 163.458 21.0824V26.4517C163.174 26.3665 162.781 26.2907 162.279 26.2244C161.777 26.1581 161.318 26.125 160.901 26.125C160.011 26.125 159.216 26.3191 158.515 26.7074C157.824 27.0862 157.274 27.6165 156.867 28.2983C156.469 28.9801 156.271 29.7661 156.271 30.6562V43H150.219ZM175.514 43.4261C173.27 43.4261 171.338 42.9716 169.719 42.0625C168.109 41.1439 166.868 39.8466 165.997 38.1705C165.126 36.4848 164.69 34.4915 164.69 32.1903C164.69 29.946 165.126 27.9763 165.997 26.2812C166.868 24.5862 168.095 23.2652 169.676 22.3182C171.267 21.3712 173.133 20.8977 175.273 20.8977C176.712 20.8977 178.052 21.1297 179.293 21.5938C180.543 22.0483 181.632 22.7348 182.56 23.6534C183.497 24.572 184.226 25.7273 184.747 27.1193C185.268 28.5019 185.528 30.1212 185.528 31.9773V33.6392H167.105V29.8892H179.832C179.832 29.018 179.643 28.2462 179.264 27.5739C178.885 26.9015 178.36 26.3759 177.688 25.9972C177.025 25.6089 176.253 25.4148 175.372 25.4148C174.454 25.4148 173.639 25.6278 172.929 26.054C172.228 26.4706 171.679 27.0341 171.281 27.7443C170.884 28.4451 170.68 29.2263 170.67 30.0881V33.6534C170.67 34.733 170.869 35.6657 171.267 36.4517C171.674 37.2377 172.247 37.8438 172.986 38.2699C173.724 38.696 174.6 38.9091 175.614 38.9091C176.286 38.9091 176.902 38.8144 177.46 38.625C178.019 38.4356 178.497 38.1515 178.895 37.7727C179.293 37.3939 179.596 36.9299 179.804 36.3807L185.401 36.75C185.116 38.0947 184.534 39.2689 183.653 40.2727C182.782 41.267 181.655 42.0436 180.273 42.6023C178.9 43.1515 177.313 43.4261 175.514 43.4261ZM195.528 30.3864V43H189.477V13.9091H195.358V25.0312H195.614C196.106 23.7434 196.902 22.7348 198 22.0057C199.098 21.267 200.476 20.8977 202.134 20.8977C203.649 20.8977 204.97 21.2292 206.097 21.892C207.233 22.5455 208.114 23.4877 208.739 24.7188C209.373 25.9403 209.686 27.4034 209.676 29.108V43H203.625V30.1875C203.634 28.8428 203.294 27.7964 202.602 27.0483C201.92 26.3002 200.964 25.9261 199.733 25.9261C198.909 25.9261 198.18 26.1013 197.545 26.4517C196.92 26.8021 196.428 27.3134 196.068 27.9858C195.718 28.6487 195.538 29.4489 195.528 30.3864ZM224.296 43.4261C222.09 43.4261 220.182 42.9574 218.572 42.0199C216.971 41.0729 215.736 39.7566 214.864 38.071C213.993 36.3759 213.558 34.411 213.558 32.1761C213.558 29.9223 213.993 27.9527 214.864 26.267C215.736 24.572 216.971 23.2557 218.572 22.3182C220.182 21.3712 222.09 20.8977 224.296 20.8977C226.503 20.8977 228.406 21.3712 230.006 22.3182C231.616 23.2557 232.857 24.572 233.728 26.267C234.599 27.9527 235.035 29.9223 235.035 32.1761C235.035 34.411 234.599 36.3759 233.728 38.071C232.857 39.7566 231.616 41.0729 230.006 42.0199C228.406 42.9574 226.503 43.4261 224.296 43.4261ZM224.325 38.7386C225.328 38.7386 226.166 38.4545 226.839 37.8864C227.511 37.3087 228.018 36.5227 228.359 35.5284C228.709 34.5341 228.884 33.4025 228.884 32.1335C228.884 30.8646 228.709 29.733 228.359 28.7386C228.018 27.7443 227.511 26.9583 226.839 26.3807C226.166 25.803 225.328 25.5142 224.325 25.5142C223.311 25.5142 222.459 25.803 221.768 26.3807C221.086 26.9583 220.57 27.7443 220.219 28.7386C219.879 29.733 219.708 30.8646 219.708 32.1335C219.708 33.4025 219.879 34.5341 220.219 35.5284C220.57 36.5227 221.086 37.3087 221.768 37.8864C222.459 38.4545 223.311 38.7386 224.325 38.7386ZM252.961 33.7102V21.1818H259.012V43H253.202V39.0369H252.975C252.483 40.3153 251.664 41.3428 250.518 42.1193C249.381 42.8958 247.994 43.2841 246.356 43.2841C244.897 43.2841 243.614 42.9527 242.506 42.2898C241.398 41.6269 240.532 40.6847 239.907 39.4631C239.291 38.2415 238.979 36.7784 238.969 35.0739V21.1818H245.021V33.9943C245.03 35.2822 245.376 36.3002 246.058 37.0483C246.739 37.7964 247.653 38.1705 248.799 38.1705C249.528 38.1705 250.21 38.0047 250.844 37.6733C251.479 37.3324 251.99 36.8305 252.379 36.1676C252.776 35.5047 252.97 34.6856 252.961 33.7102ZM282.006 27.4034L276.466 27.7443C276.371 27.2708 276.168 26.8447 275.855 26.4659C275.543 26.0777 275.131 25.7699 274.619 25.5426C274.117 25.3059 273.516 25.1875 272.815 25.1875C271.878 25.1875 271.087 25.3864 270.443 25.7841C269.799 26.1723 269.477 26.6932 269.477 27.3466C269.477 27.8674 269.686 28.3078 270.102 28.6676C270.519 29.0275 271.234 29.3163 272.247 29.5341L276.196 30.3295C278.317 30.7652 279.899 31.4659 280.94 32.4318C281.982 33.3977 282.503 34.6667 282.503 36.2386C282.503 37.6686 282.081 38.9233 281.239 40.0028C280.405 41.0824 279.259 41.9252 277.801 42.5312C276.352 43.1278 274.681 43.4261 272.787 43.4261C269.899 43.4261 267.598 42.8248 265.884 41.6222C264.179 40.41 263.18 38.7623 262.886 36.679L268.838 36.3665C269.018 37.2472 269.454 37.9195 270.145 38.3835C270.836 38.8381 271.722 39.0653 272.801 39.0653C273.862 39.0653 274.714 38.8617 275.358 38.4545C276.011 38.0379 276.343 37.5028 276.352 36.8494C276.343 36.3002 276.111 35.8504 275.656 35.5C275.202 35.1402 274.501 34.8655 273.554 34.6761L269.776 33.9233C267.645 33.4972 266.059 32.7585 265.017 31.7074C263.985 30.6562 263.469 29.3163 263.469 27.6875C263.469 26.286 263.848 25.0786 264.605 24.0653C265.372 23.0521 266.447 22.2708 267.83 21.7216C269.222 21.1723 270.85 20.8977 272.716 20.8977C275.472 20.8977 277.64 21.4801 279.222 22.6449C280.813 23.8097 281.741 25.3958 282.006 27.4034ZM296.256 43.4261C294.012 43.4261 292.08 42.9716 290.461 42.0625C288.851 41.1439 287.611 39.8466 286.739 38.1705C285.868 36.4848 285.433 34.4915 285.433 32.1903C285.433 29.946 285.868 27.9763 286.739 26.2812C287.611 24.5862 288.837 23.2652 290.418 22.3182C292.009 21.3712 293.875 20.8977 296.015 20.8977C297.454 20.8977 298.794 21.1297 300.035 21.5938C301.285 22.0483 302.374 22.7348 303.302 23.6534C304.239 24.572 304.969 25.7273 305.489 27.1193C306.01 28.5019 306.271 30.1212 306.271 31.9773V33.6392H287.847V29.8892H300.575C300.575 29.018 300.385 28.2462 300.006 27.5739C299.628 26.9015 299.102 26.3759 298.43 25.9972C297.767 25.6089 296.995 25.4148 296.114 25.4148C295.196 25.4148 294.381 25.6278 293.671 26.054C292.97 26.4706 292.421 27.0341 292.023 27.7443C291.626 28.4451 291.422 29.2263 291.413 30.0881V33.6534C291.413 34.733 291.612 35.6657 292.009 36.4517C292.416 37.2377 292.989 37.8438 293.728 38.2699C294.467 38.696 295.343 38.9091 296.356 38.9091C297.028 38.9091 297.644 38.8144 298.202 38.625C298.761 38.4356 299.239 38.1515 299.637 37.7727C300.035 37.3939 300.338 36.9299 300.546 36.3807L306.143 36.75C305.859 38.0947 305.276 39.2689 304.396 40.2727C303.524 41.267 302.397 42.0436 301.015 42.6023C299.642 43.1515 298.056 43.4261 296.256 43.4261Z" fill="#181923"/>
<path d="M308.5 54.5H85.5V57.5H308.5V54.5Z" fill="#9DC4FF" mask="url(#path-2-inside-1_1359_832)"/>
<path d="M80.4205 65.5455H82.9432L86.4886 80.0341H86.6932L95.0114 65.5455H97.5341L94.6364 83H92.6591L94.875 69.7386H94.7045L87.0341 83H85.125L81.8864 69.7386H81.7159L79.5 83H77.5227L80.4205 65.5455ZM102.42 83.3068C101.59 83.3068 100.863 83.1506 100.238 82.8381C99.6129 82.5199 99.1499 82.0625 98.8487 81.4659C98.5476 80.8636 98.4652 80.1364 98.6016 79.2841C98.7322 78.5341 98.9851 77.9261 99.3601 77.4602C99.7351 76.9886 100.19 76.6193 100.724 76.3523C101.263 76.0795 101.843 75.8778 102.462 75.7472C103.087 75.6108 103.71 75.5057 104.329 75.4318C105.136 75.3295 105.792 75.25 106.298 75.1932C106.803 75.1364 107.184 75.0426 107.44 74.9119C107.695 74.7812 107.852 74.5568 107.908 74.2386V74.1705C108.045 73.3352 107.934 72.6847 107.576 72.2188C107.218 71.7472 106.579 71.5114 105.658 71.5114C104.704 71.5114 103.906 71.7216 103.263 72.142C102.621 72.5625 102.147 73.0114 101.84 73.4886L100.067 72.8068C100.533 72.0114 101.09 71.392 101.738 70.9489C102.386 70.5 103.065 70.1875 103.775 70.0114C104.485 69.8295 105.17 69.7386 105.829 69.7386C106.249 69.7386 106.724 69.7898 107.252 69.892C107.781 69.9886 108.275 70.1903 108.735 70.4972C109.201 70.804 109.55 71.267 109.783 71.8864C110.022 72.5057 110.056 73.3352 109.886 74.375L108.454 83H106.442L106.749 81.2273H106.647C106.465 81.5114 106.187 81.8153 105.812 82.1392C105.442 82.4631 104.974 82.7386 104.406 82.9659C103.843 83.1932 103.181 83.3068 102.42 83.3068ZM102.999 81.5C103.795 81.5 104.491 81.3438 105.087 81.0312C105.69 80.7188 106.173 80.3153 106.536 79.821C106.906 79.3267 107.136 78.8068 107.227 78.2614L107.533 76.4205C107.431 76.5227 107.229 76.6165 106.928 76.7017C106.627 76.7812 106.286 76.8523 105.906 76.9148C105.531 76.9716 105.164 77.0227 104.806 77.0682C104.454 77.108 104.17 77.142 103.954 77.1705C103.42 77.2386 102.911 77.3494 102.428 77.5028C101.951 77.6506 101.548 77.875 101.218 78.1761C100.894 78.4716 100.692 78.875 100.613 79.3864C100.494 80.0852 100.661 80.6136 101.116 80.9716C101.57 81.3239 102.198 81.5 102.999 81.5ZM115.432 75.125L114.136 83H112.125L114.307 69.9091H116.25L115.909 71.9545H116.08C116.489 71.2898 117.043 70.7557 117.741 70.3523C118.44 69.9432 119.284 69.7386 120.273 69.7386C121.148 69.7386 121.886 69.9205 122.489 70.2841C123.097 70.642 123.526 71.1875 123.776 71.9205C124.031 72.6477 124.068 73.5682 123.886 74.6818L122.489 83H120.477L121.841 74.8182C122.011 73.7955 121.878 72.9943 121.44 72.4148C121.009 71.8352 120.324 71.5455 119.386 71.5455C118.739 71.5455 118.139 71.6847 117.588 71.9631C117.043 72.2415 116.58 72.6477 116.199 73.1818C115.824 73.7159 115.568 74.3636 115.432 75.125ZM129.982 83.3068C129.153 83.3068 128.425 83.1506 127.8 82.8381C127.175 82.5199 126.712 82.0625 126.411 81.4659C126.11 80.8636 126.028 80.1364 126.164 79.2841C126.295 78.5341 126.548 77.9261 126.923 77.4602C127.298 76.9886 127.752 76.6193 128.286 76.3523C128.826 76.0795 129.406 75.8778 130.025 75.7472C130.65 75.6108 131.272 75.5057 131.891 75.4318C132.698 75.3295 133.354 75.25 133.86 75.1932C134.366 75.1364 134.746 75.0426 135.002 74.9119C135.258 74.7812 135.414 74.5568 135.471 74.2386V74.1705C135.607 73.3352 135.496 72.6847 135.138 72.2188C134.781 71.7472 134.141 71.5114 133.221 71.5114C132.266 71.5114 131.468 71.7216 130.826 72.142C130.184 72.5625 129.71 73.0114 129.403 73.4886L127.63 72.8068C128.096 72.0114 128.653 71.392 129.3 70.9489C129.948 70.5 130.627 70.1875 131.337 70.0114C132.048 69.8295 132.732 69.7386 133.391 69.7386C133.812 69.7386 134.286 69.7898 134.815 69.892C135.343 69.9886 135.837 70.1903 136.298 70.4972C136.763 70.804 137.113 71.267 137.346 71.8864C137.585 72.5057 137.619 73.3352 137.448 74.375L136.016 83H134.005L134.312 81.2273H134.21C134.028 81.5114 133.749 81.8153 133.374 82.1392C133.005 82.4631 132.536 82.7386 131.968 82.9659C131.406 83.1932 130.744 83.3068 129.982 83.3068ZM130.562 81.5C131.357 81.5 132.053 81.3438 132.65 81.0312C133.252 80.7188 133.735 80.3153 134.099 79.821C134.468 79.3267 134.698 78.8068 134.789 78.2614L135.096 76.4205C134.994 76.5227 134.792 76.6165 134.491 76.7017C134.19 76.7812 133.849 76.8523 133.468 76.9148C133.093 76.9716 132.727 77.0227 132.369 77.0682C132.016 77.108 131.732 77.142 131.516 77.1705C130.982 77.2386 130.474 77.3494 129.991 77.5028C129.513 77.6506 129.11 77.875 128.781 78.1761C128.457 78.4716 128.255 78.875 128.175 79.3864C128.056 80.0852 128.224 80.6136 128.678 80.9716C129.133 81.3239 129.761 81.5 130.562 81.5ZM144.153 88.1818C143.176 88.1818 142.358 88.0568 141.699 87.8068C141.04 87.5625 140.511 87.2386 140.114 86.8352C139.716 86.4375 139.415 86.0114 139.21 85.5568L141.017 84.4318C141.153 84.6705 141.33 84.9432 141.545 85.25C141.761 85.5625 142.088 85.8324 142.526 86.0597C142.969 86.2926 143.591 86.4091 144.392 86.4091C145.443 86.4091 146.364 86.1534 147.153 85.642C147.943 85.1307 148.432 84.3295 148.619 83.2386L149.028 80.5795H148.858C148.676 80.8182 148.423 81.1136 148.099 81.4659C147.776 81.8125 147.341 82.1222 146.795 82.3949C146.25 82.6619 145.551 82.7955 144.699 82.7955C143.636 82.7955 142.727 82.5455 141.972 82.0455C141.216 81.5455 140.673 80.8182 140.344 79.8636C140.02 78.9091 139.972 77.75 140.199 76.3864C140.42 75.0455 140.847 73.8778 141.477 72.8835C142.114 71.8835 142.898 71.1108 143.83 70.5653C144.761 70.0142 145.778 69.7386 146.881 69.7386C147.733 69.7386 148.386 69.8807 148.841 70.1648C149.301 70.4432 149.636 70.7614 149.847 71.1193C150.057 71.4716 150.216 71.7614 150.324 71.9886H150.528L150.869 69.9091H152.812L150.597 83.375C150.409 84.5 150.003 85.4148 149.378 86.1193C148.753 86.8295 147.986 87.3494 147.077 87.679C146.168 88.0142 145.193 88.1818 144.153 88.1818ZM145.21 80.9886C146.011 80.9886 146.724 80.804 147.349 80.4347C147.98 80.0653 148.503 79.5341 148.918 78.8409C149.332 78.1477 149.619 77.3182 149.778 76.3523C149.938 75.4091 149.926 74.5767 149.744 73.8551C149.563 73.1335 149.219 72.5682 148.713 72.1591C148.213 71.75 147.557 71.5455 146.744 71.5455C145.886 71.5455 145.145 71.7614 144.52 72.1932C143.901 72.625 143.398 73.2045 143.011 73.9318C142.625 74.6591 142.358 75.4659 142.21 76.3523C142.063 77.2614 142.068 78.0653 142.227 78.7642C142.386 79.4574 142.71 80.0028 143.199 80.4006C143.693 80.7926 144.364 80.9886 145.21 80.9886ZM159.767 83.2727C158.511 83.2727 157.474 82.9943 156.656 82.4375C155.838 81.875 155.267 81.0909 154.943 80.0852C154.619 79.0739 154.568 77.8977 154.79 76.5568C155.011 75.2159 155.452 74.0341 156.111 73.0114C156.77 71.983 157.591 71.1818 158.574 70.608C159.557 70.0284 160.636 69.7386 161.812 69.7386C162.494 69.7386 163.151 69.8523 163.781 70.0795C164.412 70.3068 164.957 70.6761 165.418 71.1875C165.878 71.6932 166.199 72.3636 166.381 73.1989C166.563 74.0341 166.551 75.0625 166.347 76.2841L166.21 77.1364H156.119L156.392 75.3977H164.438C164.568 74.6591 164.534 74 164.335 73.4205C164.142 72.8409 163.804 72.3835 163.321 72.0483C162.844 71.7131 162.239 71.5455 161.506 71.5455C160.75 71.5455 160.045 71.75 159.392 72.1591C158.739 72.5625 158.193 73.0739 157.756 73.6932C157.318 74.3068 157.045 74.9318 156.938 75.5682L156.699 77.0682C156.528 78.1534 156.554 79.017 156.776 79.6591C157.003 80.3011 157.398 80.7642 157.96 81.0483C158.523 81.3267 159.227 81.4659 160.074 81.4659C160.614 81.4659 161.111 81.392 161.565 81.2443C162.02 81.0909 162.426 80.8636 162.784 80.5625C163.142 80.2557 163.443 79.875 163.688 79.4205L165.528 79.9659C165.216 80.625 164.776 81.2045 164.207 81.7045C163.645 82.1989 162.986 82.5852 162.23 82.8636C161.48 83.1364 160.659 83.2727 159.767 83.2727ZM168.328 83L170.51 69.9091H172.453L172.112 71.9545H172.283C172.675 71.2557 173.206 70.7131 173.876 70.3267C174.553 69.9347 175.317 69.7386 176.169 69.7386C177.021 69.7386 177.706 69.9347 178.223 70.3267C178.74 70.7131 179.101 71.2557 179.305 71.9545H179.442C179.885 71.2727 180.476 70.733 181.214 70.3352C181.959 69.9375 182.8 69.7386 183.737 69.7386C184.896 69.7386 185.788 70.1051 186.413 70.8381C187.044 71.571 187.232 72.7045 186.976 74.2386L185.51 83H183.499L184.964 74.2386C185.118 73.267 184.964 72.5767 184.504 72.1676C184.05 71.7528 183.464 71.5455 182.749 71.5455C181.828 71.5455 181.07 71.821 180.473 72.3722C179.876 72.9233 179.51 73.625 179.374 74.4773L177.942 83H175.896L177.396 74.0341C177.516 73.2841 177.374 72.6818 176.97 72.2273C176.567 71.7727 175.982 71.5455 175.214 71.5455C174.692 71.5455 174.18 71.6875 173.68 71.9716C173.18 72.25 172.751 72.6364 172.393 73.1307C172.036 73.6193 171.805 74.1818 171.703 74.8182L170.339 83H168.328ZM194.642 83.2727C193.386 83.2727 192.349 82.9943 191.531 82.4375C190.713 81.875 190.142 81.0909 189.818 80.0852C189.494 79.0739 189.443 77.8977 189.665 76.5568C189.886 75.2159 190.327 74.0341 190.986 73.0114C191.645 71.983 192.466 71.1818 193.449 70.608C194.432 70.0284 195.511 69.7386 196.688 69.7386C197.369 69.7386 198.026 69.8523 198.656 70.0795C199.287 70.3068 199.832 70.6761 200.293 71.1875C200.753 71.6932 201.074 72.3636 201.256 73.1989C201.438 74.0341 201.426 75.0625 201.222 76.2841L201.085 77.1364H190.994L191.267 75.3977H199.312C199.443 74.6591 199.409 74 199.21 73.4205C199.017 72.8409 198.679 72.3835 198.196 72.0483C197.719 71.7131 197.114 71.5455 196.381 71.5455C195.625 71.5455 194.92 71.75 194.267 72.1591C193.614 72.5625 193.068 73.0739 192.631 73.6932C192.193 74.3068 191.92 74.9318 191.812 75.5682L191.574 77.0682C191.403 78.1534 191.429 79.017 191.651 79.6591C191.878 80.3011 192.273 80.7642 192.835 81.0483C193.398 81.3267 194.102 81.4659 194.949 81.4659C195.489 81.4659 195.986 81.392 196.44 81.2443C196.895 81.0909 197.301 80.8636 197.659 80.5625C198.017 80.2557 198.318 79.875 198.562 79.4205L200.403 79.9659C200.091 80.625 199.651 81.2045 199.082 81.7045C198.52 82.1989 197.861 82.5852 197.105 82.8636C196.355 83.1364 195.534 83.2727 194.642 83.2727ZM206.51 75.125L205.214 83H203.203L205.385 69.9091H207.328L206.987 71.9545H207.158C207.567 71.2898 208.121 70.7557 208.82 70.3523C209.518 69.9432 210.362 69.7386 211.351 69.7386C212.226 69.7386 212.964 69.9205 213.567 70.2841C214.175 70.642 214.604 71.1875 214.854 71.9205C215.109 72.6477 215.146 73.5682 214.964 74.6818L213.567 83H211.555L212.919 74.8182C213.089 73.7955 212.956 72.9943 212.518 72.4148C212.087 71.8352 211.402 71.5455 210.464 71.5455C209.817 71.5455 209.217 71.6847 208.666 71.9631C208.121 72.2415 207.658 72.6477 207.277 73.1818C206.902 73.7159 206.646 74.3636 206.51 75.125ZM225.117 69.9091L224.844 71.6136H218.06L218.333 69.9091H225.117ZM220.822 66.7727H222.833L220.754 79.25C220.663 79.8182 220.677 80.2443 220.796 80.5284C220.921 80.8068 221.109 80.9943 221.359 81.0909C221.614 81.1818 221.89 81.2273 222.185 81.2273C222.407 81.2273 222.589 81.2159 222.731 81.1932C222.873 81.1648 222.987 81.142 223.072 81.125L223.208 82.9318C223.055 82.983 222.847 83.0341 222.586 83.0852C222.33 83.142 222.015 83.1705 221.64 83.1705C221.072 83.1705 220.538 83.0483 220.038 82.804C219.538 82.5597 219.154 82.1875 218.887 81.6875C218.62 81.1875 218.549 80.5568 218.674 79.7955L220.822 66.7727ZM244.677 70.0455C244.677 69.108 244.367 68.3977 243.748 67.9148C243.129 67.4261 242.29 67.1818 241.234 67.1818C240.461 67.1818 239.765 67.3068 239.146 67.5568C238.526 67.8068 238.021 68.1506 237.629 68.5881C237.237 69.0256 236.995 69.5227 236.904 70.0795C236.83 70.5455 236.879 70.946 237.049 71.2812C237.219 71.6108 237.461 71.8864 237.773 72.108C238.092 72.3239 238.433 72.5028 238.796 72.6449C239.16 72.7812 239.495 72.892 239.802 72.9773L241.506 73.4545C241.933 73.5739 242.407 73.7386 242.93 73.9489C243.452 74.1591 243.941 74.446 244.396 74.8097C244.85 75.1676 245.197 75.6278 245.435 76.1903C245.68 76.7528 245.734 77.4432 245.597 78.2614C245.438 79.2045 245.049 80.0568 244.43 80.8182C243.816 81.5795 243.004 82.1847 241.992 82.6335C240.987 83.0824 239.813 83.3068 238.472 83.3068C237.222 83.3068 236.171 83.1051 235.319 82.7017C234.472 82.2983 233.847 81.7358 233.444 81.0142C233.046 80.2926 232.893 79.4545 232.984 78.5H235.165C235.109 79.1591 235.239 79.7045 235.558 80.1364C235.876 80.5625 236.319 80.8807 236.887 81.0909C237.455 81.2955 238.086 81.3977 238.779 81.3977C239.586 81.3977 240.33 81.267 241.012 81.0057C241.7 80.7386 242.268 80.3693 242.717 79.8977C243.171 79.4205 243.45 78.8636 243.552 78.2273C243.654 77.6477 243.575 77.1761 243.313 76.8125C243.052 76.4489 242.674 76.1534 242.18 75.9261C241.685 75.6989 241.143 75.5 240.552 75.3295L238.506 74.7159C237.211 74.3239 236.225 73.7642 235.549 73.0369C234.879 72.3097 234.637 71.358 234.825 70.1818C234.995 69.2045 235.407 68.3523 236.06 67.625C236.714 66.892 237.523 66.3239 238.489 65.9205C239.455 65.5114 240.495 65.3068 241.609 65.3068C242.734 65.3068 243.697 65.5114 244.498 65.9205C245.299 66.3239 245.896 66.8835 246.288 67.5994C246.68 68.3097 246.825 69.125 246.722 70.0455H244.677ZM248.51 87.9091C248.169 87.9091 247.868 87.8807 247.607 87.8239C247.351 87.7727 247.175 87.7216 247.078 87.6705L247.896 85.8977C248.362 86.0227 248.777 86.0597 249.141 86.0085C249.51 85.9631 249.859 85.7841 250.189 85.4716C250.524 85.1648 250.874 84.6818 251.237 84.0227L251.8 83L249.175 69.9091H251.271L253.146 80.375H253.283L258.635 69.9091H260.902L252.874 84.892C252.499 85.5909 252.087 86.1619 251.638 86.6051C251.189 87.0483 250.703 87.375 250.18 87.5852C249.658 87.8011 249.101 87.9091 248.51 87.9091ZM272.352 72.8409L270.443 73.3523C270.375 73.0455 270.256 72.75 270.085 72.4659C269.92 72.1761 269.665 71.9403 269.318 71.7585C268.977 71.571 268.511 71.4773 267.92 71.4773C267.119 71.4773 266.423 71.6619 265.832 72.0312C265.241 72.3949 264.903 72.858 264.818 73.4205C264.733 73.9148 264.847 74.3097 265.159 74.6051C265.472 74.9006 265.994 75.142 266.727 75.3295L268.602 75.8068C269.727 76.0966 270.528 76.5312 271.006 77.1108C271.489 77.6847 271.653 78.4318 271.5 79.3523C271.375 80.1023 271.048 80.7727 270.52 81.3636C269.991 81.9545 269.315 82.4205 268.491 82.7614C267.668 83.1023 266.75 83.2727 265.739 83.2727C264.392 83.2727 263.33 82.983 262.551 82.4034C261.773 81.8182 261.358 80.9716 261.307 79.8636L263.318 79.3864C263.369 80.0852 263.619 80.6136 264.068 80.9716C264.523 81.3239 265.159 81.5 265.977 81.5C266.915 81.5 267.696 81.3011 268.321 80.9034C268.946 80.5 269.301 80.017 269.386 79.4545C269.472 78.9943 269.381 78.6108 269.114 78.304C268.852 77.9972 268.398 77.767 267.75 77.6136L265.67 77.1023C264.511 76.8125 263.699 76.3693 263.233 75.7727C262.773 75.1761 262.619 74.4261 262.773 73.5227C262.898 72.7841 263.216 72.1307 263.727 71.5625C264.244 70.9943 264.892 70.5483 265.67 70.2244C266.455 69.9006 267.307 69.7386 268.227 69.7386C269.523 69.7386 270.491 70.0227 271.134 70.5909C271.776 71.1534 272.182 71.9034 272.352 72.8409ZM281.789 69.9091L281.516 71.6136H274.732L275.005 69.9091H281.789ZM277.494 66.7727H279.505L277.425 79.25C277.335 79.8182 277.349 80.2443 277.468 80.5284C277.593 80.8068 277.781 80.9943 278.031 81.0909C278.286 81.1818 278.562 81.2273 278.857 81.2273C279.079 81.2273 279.261 81.2159 279.403 81.1932C279.545 81.1648 279.658 81.142 279.744 81.125L279.88 82.9318C279.727 82.983 279.519 83.0341 279.258 83.0852C279.002 83.142 278.687 83.1705 278.312 83.1705C277.744 83.1705 277.21 83.0483 276.71 82.804C276.21 82.5597 275.826 82.1875 275.559 81.6875C275.292 81.1875 275.221 80.5568 275.346 79.7955L277.494 66.7727ZM287.947 83.2727C286.691 83.2727 285.654 82.9943 284.836 82.4375C284.018 81.875 283.447 81.0909 283.123 80.0852C282.799 79.0739 282.748 77.8977 282.969 76.5568C283.191 75.2159 283.631 74.0341 284.29 73.0114C284.95 71.983 285.771 71.1818 286.754 70.608C287.737 70.0284 288.816 69.7386 289.992 69.7386C290.674 69.7386 291.33 69.8523 291.961 70.0795C292.592 70.3068 293.137 70.6761 293.597 71.1875C294.058 71.6932 294.379 72.3636 294.56 73.1989C294.742 74.0341 294.731 75.0625 294.526 76.2841L294.39 77.1364H284.299L284.572 75.3977H292.617C292.748 74.6591 292.714 74 292.515 73.4205C292.322 72.8409 291.984 72.3835 291.501 72.0483C291.023 71.7131 290.418 71.5455 289.685 71.5455C288.93 71.5455 288.225 71.75 287.572 72.1591C286.918 72.5625 286.373 73.0739 285.935 73.6932C285.498 74.3068 285.225 74.9318 285.117 75.5682L284.879 77.0682C284.708 78.1534 284.734 79.017 284.955 79.6591C285.183 80.3011 285.577 80.7642 286.14 81.0483C286.702 81.3267 287.407 81.4659 288.254 81.4659C288.793 81.4659 289.29 81.392 289.745 81.2443C290.2 81.0909 290.606 80.8636 290.964 80.5625C291.322 80.2557 291.623 79.875 291.867 79.4205L293.708 79.9659C293.396 80.625 292.955 81.2045 292.387 81.7045C291.825 82.1989 291.165 82.5852 290.41 82.8636C289.66 83.1364 288.839 83.2727 287.947 83.2727ZM296.508 83L298.69 69.9091H300.633L300.292 71.9545H300.462C300.854 71.2557 301.386 70.7131 302.056 70.3267C302.732 69.9347 303.496 69.7386 304.349 69.7386C305.201 69.7386 305.886 69.9347 306.403 70.3267C306.92 70.7131 307.281 71.2557 307.485 71.9545H307.621C308.065 71.2727 308.656 70.733 309.394 70.3352C310.138 69.9375 310.979 69.7386 311.917 69.7386C313.076 69.7386 313.968 70.1051 314.593 70.8381C315.224 71.571 315.411 72.7045 315.156 74.2386L313.69 83H311.678L313.144 74.2386C313.298 73.267 313.144 72.5767 312.684 72.1676C312.229 71.7528 311.644 71.5455 310.928 71.5455C310.008 71.5455 309.249 71.821 308.653 72.3722C308.056 72.9233 307.69 73.625 307.553 74.4773L306.121 83H304.076L305.576 74.0341C305.695 73.2841 305.553 72.6818 305.15 72.2273C304.746 71.7727 304.161 71.5455 303.394 71.5455C302.871 71.5455 302.36 71.6875 301.86 71.9716C301.36 72.25 300.931 72.6364 300.573 73.1307C300.215 73.6193 299.985 74.1818 299.883 74.8182L298.519 83H296.508Z" fill="#828282"/>
</svg>
